<?xml version="1.0" encoding="UTF-8" standalone="no"?> <!-- Created with Vectornator (http://vectornator.io/) --><!DOCTYPE svg PUBLIC "-//W3C//DTD SVG 1.1//EN" "http://www.w3.org/Graphics/SVG/1.1/DTD/svg11.dtd">
<svg height="100%" stroke-miterlimit="10" style="fill-rule:nonzero;clip-rule:evenodd;stroke-linecap:round;stroke-linejoin:round;" version="1.1" viewBox="0 0 1024 1024" width="100%" xml:space="preserve" xmlns="http://www.w3.org/2000/svg" xmlns:vectornator="http://vectornator.io" xmlns:xlink="http://www.w3.org/1999/xlink">
<metadata>
<vectornator:setting key="IsTimeLapseWatermarkDisabled" value="false"/>
<vectornator:setting key="UndoHistoryDisabled" value="true"/>
<vectornator:setting key="VNDimensionsVisible" value="true"/>
<vectornator:setting key="VNSnapToGuides" value="true"/>
<vectornator:setting key="WDCMYKEnabledKey" value="false"/>
<vectornator:setting key="WDDisplayWhiteBackground" value="false"/>
<vectornator:setting key="WDDynamicGuides" value="true"/>
<vectornator:setting key="WDGuidesVisible" value="true"/>
<vectornator:setting key="WDIsolateActiveLayer" value="false"/>
<vectornator:setting key="WDOutlineMode" value="false"/>
<vectornator:setting key="WDRulersVisible" value="true"/>
<vectornator:setting key="WDSnapToEdges" value="true"/>
<vectornator:setting key="WDSnapToGrid" value="false"/>
<vectornator:setting key="WDSnapToPoints" value="true"/>
<vectornator:setting key="WDUnits" value="Pixels"/>
</metadata>
<defs>
<linearGradient gradientTransform="matrix(0.721719 0.721719 -0.721719 0.721719 512 -227.04)" gradientUnits="userSpaceOnUse" id="LinearGradient" x1="174.969" x2="869.031" y1="154.969" y2="849.031">
<stop offset="0" stop-color="#000000" stop-opacity="0.225"/>
<stop offset="0.00413223" stop-color="#000000" stop-opacity="0.4"/>
<stop offset="0.497934" stop-color="#000000" stop-opacity="0.6"/>
<stop offset="0.508264" stop-color="#000000" stop-opacity="0.3"/>
<stop offset="0.995868" stop-color="#000000" stop-opacity="0.6"/>
<stop offset="1" stop-color="#000000" stop-opacity="0.775"/>
</linearGradient>
<path d="M526.434 11.0696L1012.93 497.566C1020.9 505.538 1020.9 518.462 1012.93 526.434L526.434 1012.93C518.462 1020.9 505.538 1020.9 497.566 1012.93L11.0696 526.434C3.09771 518.462 3.09771 505.538 11.0696 497.566L497.566 11.0696C505.538 3.09771 518.462 3.09771 526.434 11.0696Z" fill-rule="evenodd" id="Fill"/>
<linearGradient gradientTransform="matrix(0.721719 0.721719 -0.721719 0.721719 512 -227.04)" gradientUnits="userSpaceOnUse" id="LinearGradient_2" x1="174.969" x2="874.031" y1="149.969" y2="849.031">
<stop offset="0" stop-color="#000000" stop-opacity="0.45"/>
<stop offset="1" stop-color="#000000"/>
</linearGradient>
</defs>
<g id="圖層1" vectornator:layerName="圖層1">
<path d="M530.043 7.47363C520.078-2.4912 503.922-2.49122 493.957 7.47363L7.47363 493.957C-2.4912 503.922-2.49122 520.078 7.47363 530.043L493.957 1016.53C503.922 1026.49 520.078 1026.49 530.043 1016.53L1016.53 530.043C1026.49 520.078 1026.49 503.922 1016.53 493.957L530.043 7.47363ZM526.434 11.0822L1012.92 497.566C1020.89 505.538 1020.89 518.462 1012.92 526.434L526.434 1012.92C518.462 1020.89 505.538 1020.89 497.566 1012.92L11.0822 526.434C3.11034 518.462 3.11028 505.538 11.0822 497.566L497.566 11.0822C505.538 3.11034 518.462 3.11034 526.434 11.0822Z" fill="url(#LinearGradient)" fill-rule="evenodd" opacity="1" stroke="none"/>
<g opacity="1" vectornator:mask="#Fill">
<use fill="url(#LinearGradient_2)" stroke="none" xlink:href="#Fill"/>
<clipPath id="ClipPath">
<use overflow="#visible" xlink:href="#Fill"/>
</clipPath>
<g clip-path="url(#ClipPath)">
<path d="M528.171-49.2038C519.24-58.1349 504.76-58.1349 495.829-49.2038L-49.2038 495.829C-58.1349 504.76-58.1349 519.24-49.2038 528.171L495.829 1073.2C504.76 1082.13 519.24 1082.13 528.171 1073.2L1073.2 528.171C1082.13 519.24 1082.13 504.76 1073.2 495.829L528.171-49.2038ZM523.525 112.326L911.674 500.475C918.034 506.835 918.035 517.165 911.674 523.525L523.525 911.674C517.165 918.034 506.835 918.035 500.475 911.674L112.326 523.525C105.965 517.165 105.966 506.835 112.326 500.475L500.475 112.326C506.835 105.965 517.165 105.965 523.525 112.326Z" fill="#000000" fill-opacity="0.35" fill-rule="evenodd" opacity="1" stroke="none"/>
</g>
</g>
</g>
</svg>
