<?xml version="1.0" encoding="UTF-8" standalone="no"?> <!-- Created with Vectornator (http://vectornator.io/) --><!DOCTYPE svg PUBLIC "-//W3C//DTD SVG 1.1//EN" "http://www.w3.org/Graphics/SVG/1.1/DTD/svg11.dtd">
<svg height="100%" stroke-miterlimit="10" style="fill-rule:nonzero;clip-rule:evenodd;stroke-linecap:round;stroke-linejoin:round;" version="1.1" viewBox="0 0 1024 1024" width="100%" xml:space="preserve" xmlns="http://www.w3.org/2000/svg" xmlns:vectornator="http://vectornator.io" xmlns:xlink="http://www.w3.org/1999/xlink">
<metadata>
<vectornator:setting key="IsTimeLapseWatermarkDisabled" value="false"/>
<vectornator:setting key="UndoHistoryDisabled" value="true"/>
<vectornator:setting key="VNDimensionsVisible" value="true"/>
<vectornator:setting key="VNSnapToGuides" value="true"/>
<vectornator:setting key="WDCMYKEnabledKey" value="false"/>
<vectornator:setting key="WDDisplayWhiteBackground" value="false"/>
<vectornator:setting key="WDDynamicGuides" value="true"/>
<vectornator:setting key="WDGuidesVisible" value="true"/>
<vectornator:setting key="WDIsolateActiveLayer" value="false"/>
<vectornator:setting key="WDOutlineMode" value="false"/>
<vectornator:setting key="WDRulersVisible" value="true"/>
<vectornator:setting key="WDSnapToEdges" value="true"/>
<vectornator:setting key="WDSnapToGrid" value="false"/>
<vectornator:setting key="WDSnapToPoints" value="true"/>
<vectornator:setting key="WDUnits" value="Pixels"/>
</metadata>
<defs>
<radialGradient cx="512" cy="512" gradientTransform="matrix(-1 1.22465e-16 -1.22465e-16 -1 1024 1024)" gradientUnits="userSpaceOnUse" id="RadialGradient" r="506.909">
<stop offset="0" stop-color="#000000" stop-opacity="0"/>
<stop offset="1" stop-color="#000000" stop-opacity="0.3"/>
</radialGradient>
<linearGradient gradientTransform="matrix(-0.721719 -0.721719 0.721719 -0.721719 512 1251.04)" gradientUnits="userSpaceOnUse" id="LinearGradient" x1="174.969" x2="869.031" y1="154.969" y2="849.031">
<stop offset="0" stop-color="#000000" stop-opacity="0.225"/>
<stop offset="0.00413223" stop-color="#000000" stop-opacity="0.4"/>
<stop offset="0.497934" stop-color="#000000" stop-opacity="0.6"/>
<stop offset="0.508264" stop-color="#000000" stop-opacity="0.3"/>
<stop offset="0.995868" stop-color="#000000" stop-opacity="0.6"/>
<stop offset="1" stop-color="#000000" stop-opacity="0.775"/>
</linearGradient>
<linearGradient gradientTransform="matrix(-0.721719 -0.721719 0.721719 -0.721719 512 1251.04)" gradientUnits="userSpaceOnUse" id="LinearGradient_2" x1="174.969" x2="874.031" y1="149.969" y2="849.031">
<stop offset="0" stop-color="#000000" stop-opacity="0.45"/>
<stop offset="1" stop-color="#000000"/>
</linearGradient>
</defs>
<g id="圖層1" vectornator:layerName="圖層1">
<path d="M497.566 1012.93L11.0696 526.434C3.09774 518.462 3.09774 505.538 11.0696 497.566L497.566 11.0696C505.538 3.09773 518.462 3.09773 526.434 11.0696L1012.93 497.566C1020.9 505.538 1020.9 518.462 1012.93 526.434L526.434 1012.93C518.462 1020.9 505.538 1020.9 497.566 1012.93Z" fill="url(#RadialGradient)" fill-rule="evenodd" opacity="1" stroke="none"/>
<path d="M493.957 1016.53C503.922 1026.49 520.078 1026.49 530.043 1016.53L1016.53 530.043C1026.49 520.078 1026.49 503.922 1016.53 493.957L530.043 7.47365C520.078-2.49124 503.922-2.4912 493.957 7.47365L7.47366 493.957C-2.49124 503.922-2.4912 520.078 7.47366 530.043L493.957 1016.53ZM497.566 1012.92L11.0822 526.434C3.11037 518.462 3.11037 505.538 11.0822 497.566L497.566 11.0822C505.538 3.11036 518.462 3.1103 526.434 11.0822L1012.92 497.566C1020.89 505.538 1020.89 518.462 1012.92 526.434L526.434 1012.92C518.462 1020.89 505.538 1020.89 497.566 1012.92Z" fill="url(#LinearGradient)" fill-rule="evenodd" opacity="1" stroke="none"/>
<path d="M497.566 1012.93L11.0696 526.434C3.09774 518.462 3.09774 505.538 11.0696 497.566L497.566 11.0696C505.538 3.09773 518.462 3.09773 526.434 11.0696L1012.93 497.566C1020.9 505.538 1020.9 518.462 1012.93 526.434L526.434 1012.93C518.462 1020.9 505.538 1020.9 497.566 1012.93Z" fill="url(#LinearGradient_2)" fill-rule="evenodd" opacity="1" stroke="none"/>
</g>
</svg>
