<?xml version="1.0" encoding="UTF-8" standalone="no"?> <!-- Created with Vectornator for iOS (http://vectornator.io/) --><!DOCTYPE svg PUBLIC "-//W3C//DTD SVG 1.1//EN" "http://www.w3.org/Graphics/SVG/1.1/DTD/svg11.dtd">
<svg height="100%" style="fill-rule:evenodd;clip-rule:evenodd;stroke-linecap:round;stroke-linejoin:round;" xmlns:xlink="http://www.w3.org/1999/xlink" xmlns="http://www.w3.org/2000/svg" xml:space="preserve" width="100%" xmlns:vectornator="http://vectornator.io" version="1.1" viewBox="0 0 52 52">
<metadata>
<vectornator:setting key="DimensionsVisible" value="1"/>
<vectornator:setting key="PencilOnly" value="0"/>
<vectornator:setting key="SnapToPoints" value="1"/>
<vectornator:setting key="OutlineMode" value="0"/>
<vectornator:setting key="CMYKEnabledKey" value="0"/>
<vectornator:setting key="RulersVisible" value="1"/>
<vectornator:setting key="SnapToEdges" value="1"/>
<vectornator:setting key="GuidesVisible" value="1"/>
<vectornator:setting key="DisplayWhiteBackground" value="0"/>
<vectornator:setting key="doHistoryDisabled" value="0"/>
<vectornator:setting key="SnapToGuides" value="1"/>
<vectornator:setting key="TimeLapseWatermarkDisabled" value="0"/>
<vectornator:setting key="Units" value="Pixels"/>
<vectornator:setting key="DynamicGuides" value="1"/>
<vectornator:setting key="IsolateActiveLayer" value="0"/>
<vectornator:setting key="SnapToGrid" value="0"/>
</metadata>
<defs/>
<g id="圖層4" vectornator:layerName="圖層4">
<path d="M8.875+6.5C4.51487+6.5+1+10.0461+1+14.4062L1+37.625C0.999995+41.9851+4.51486+45.5+8.875+45.5L17.1875+45.5L20.1875+45.5L43.0938+45.5C47.4539+45.5+51+41.9852+51+37.625L51+14.4062C51+10.0461+47.4539+6.49998+43.0938+6.5L20.1875+6.5L17.1875+6.5L8.875+6.5ZM8.125+9.5L17.1875+9.5L17.1875+42.5L8.125+42.5C5.84682+42.5+3.99999+40.6254+4+38.3125L4+13.6875C4+11.3746+5.84684+9.49998+8.125+9.5ZM20.1875+9.5L43.875+9.5C46.1532+9.5+48+11.3746+48+13.6875L48+38.3125C48+40.6254+46.1532+42.5+43.875+42.5L20.1875+42.5L20.1875+9.5ZM8.5+14.5C7.67157+14.5+7+15.1716+7+16C7+16.8284+7.67157+17.5+8.5+17.5L12.6875+17.5C13.5159+17.5+14.1875+16.8284+14.1875+16C14.1875+15.1716+13.5159+14.5+12.6875+14.5L8.5+14.5ZM8.5+20.5C7.67157+20.5+7+21.1716+7+22C7+22.8284+7.67157+23.5+8.5+23.5L12.6875+23.5C13.5159+23.5+14.1875+22.8284+14.1875+22C14.1875+21.1716+13.5159+20.5+12.6875+20.5L8.5+20.5ZM8.5+26.5C7.67157+26.5+7+27.1716+7+28C7+28.8284+7.67157+29.5+8.5+29.5L12.6875+29.5C13.5159+29.5+14.1875+28.8284+14.1875+28C14.1875+27.1716+13.5159+26.5+12.6875+26.5L8.5+26.5Z" opacity="1" fill="#000000"/>
</g>
</svg>
