<?xml version="1.0" encoding="UTF-8" standalone="no"?> <!-- Created with Vectornator for iOS (http://vectornator.io/) --><!DOCTYPE svg PUBLIC "-//W3C//DTD SVG 1.1//EN" "http://www.w3.org/Graphics/SVG/1.1/DTD/svg11.dtd">
<svg height="100%" style="fill-rule:evenodd;clip-rule:evenodd;stroke-linecap:round;stroke-linejoin:round;" xmlns:xlink="http://www.w3.org/1999/xlink" xmlns="http://www.w3.org/2000/svg" xml:space="preserve" width="100%" xmlns:vectornator="http://vectornator.io" version="1.1" viewBox="0 0 52 52">
<metadata>
<vectornator:setting key="DimensionsVisible" value="1"/>
<vectornator:setting key="PencilOnly" value="0"/>
<vectornator:setting key="SnapToPoints" value="1"/>
<vectornator:setting key="OutlineMode" value="0"/>
<vectornator:setting key="CMYKEnabledKey" value="0"/>
<vectornator:setting key="RulersVisible" value="1"/>
<vectornator:setting key="SnapToEdges" value="1"/>
<vectornator:setting key="GuidesVisible" value="1"/>
<vectornator:setting key="DisplayWhiteBackground" value="0"/>
<vectornator:setting key="doHistoryDisabled" value="0"/>
<vectornator:setting key="SnapToGuides" value="1"/>
<vectornator:setting key="TimeLapseWatermarkDisabled" value="0"/>
<vectornator:setting key="Units" value="Pixels"/>
<vectornator:setting key="DynamicGuides" value="1"/>
<vectornator:setting key="IsolateActiveLayer" value="0"/>
<vectornator:setting key="SnapToGrid" value="0"/>
</metadata>
<defs/>
<g id="圖層2" vectornator:layerName="圖層2">
<g opacity="1">
<path d="M26+3.75C13.7163+3.75+3.74997+13.7163+3.75+26C3.74997+38.2837+13.7162+48.25+26+48.25C38.2837+48.25+48.25+38.2837+48.25+26C48.25+13.7163+38.2838+3.74999+26+3.75ZM26+6.75C36.6284+6.75+45.25+15.3716+45.25+26C45.25+36.6284+36.6284+45.25+26+45.25C15.3716+45.25+6.74996+36.6284+6.75+26C6.75+15.3716+15.3716+6.75+26+6.75Z" opacity="1" fill="#000000"/>
<path d="M24+15.6719C24+14.5673+24.8954+13.6719+26+13.6719C27.1046+13.6719+28+14.5673+28+15.6719C28+16.7764+27.1046+17.6719+26+17.6719C24.8954+17.6719+24+16.7764+24+15.6719Z" opacity="1" fill="#000000"/>
<path stroke="#000000" stroke-width="3" d="M31.25+36.8339L20.75+36.8339L31.25+36.8339ZM22.3+21.7739L25.9954+21.1739L25.9954+36.8339" fill="none" stroke-linecap="round" opacity="1" stroke-linejoin="round"/>
</g>
</g>
</svg>
