<?xml version="1.0" encoding="UTF-8" standalone="no"?> <!-- Created with Vectornator for iOS (http://vectornator.io/) --><!DOCTYPE svg PUBLIC "-//W3C//DTD SVG 1.1//EN" "http://www.w3.org/Graphics/SVG/1.1/DTD/svg11.dtd">
<svg style="fill-rule:evenodd;clip-rule:evenodd;stroke-linecap:round;stroke-linejoin:round;" xmlns:vectornator="http://vectornator.io" xmlns:xlink="http://www.w3.org/1999/xlink" xmlns="http://www.w3.org/2000/svg" xml:space="preserve" version="1.1" viewBox="0 0 1024 1024">
<metadata>
<vectornator:setting key="DimensionsVisible" value="1"/>
<vectornator:setting key="New" value="1"/>
<vectornator:setting key="SnapToPoints" value="0"/>
<vectornator:setting key="OutlineMode" value="0"/>
<vectornator:setting key="RulersVisible" value="1"/>
<vectornator:setting key="GuidesVisible" value="1"/>
<vectornator:setting key="SnapToEdges" value="1"/>
<vectornator:setting key="CMYKEnabledKey" value="0"/>
<vectornator:setting key="DisplayWhiteBackground" value="0"/>
<vectornator:setting key="SnapToGuides" value="1"/>
<vectornator:setting key="Units" value="Pixels"/>
<vectornator:setting key="SnapToGrid" value="0"/>
<vectornator:setting key="GridSpacing" value="36"/>
<vectornator:setting key="DynamicGuides" value="0"/>
</metadata>
<defs>
<path d="M134.938+491.279C131.486+497.257+129.429+503.635+128.629+510.081C127.83+516.526+128.26+523.047+129.916+529.227C130.744+532.317+131.921+535.309+133.326+538.196C134.731+541.082+136.363+543.829+138.321+546.42C142.241+551.62+147.244+556.118+153.239+559.58L524.762+774.079C548.677+787.886+579.256+779.692+593.063+755.777L807.562+384.254C821.369+360.34+813.175+329.761+789.261+315.954L417.738+101.455C405.781+94.5512+392.15+93.1209+379.79+96.4328C373.61+98.0887+367.748+100.976+362.566+104.891C357.383+108.807+352.889+113.777+349.437+119.756L134.938+491.279ZM211.693+496.334L392.192+183.7C396.335+176.526+405.508+174.068+412.683+178.21L725.316+358.709C732.491+362.851+734.949+372.025+730.807+379.199L550.308+691.833C546.165+699.007+536.992+701.465+529.817+697.323L217.184+516.824C210.009+512.682+207.551+503.508+211.693+496.334Z" id="Mask"/>
<linearGradient y1="337.502" id="LinearGradient" x1="336.658" y2="337.502" x2="363.467" gradientUnits="userSpaceOnUse" gradientTransform="matrix(1.8424 -0.49367 0.49367 1.8424 -365.026 -4.61734)">
<stop stop-opacity="0" stop-color="#ffffff" offset="0"/>
<stop stop-color="#ffffff" offset="1"/>
</linearGradient>
<linearGradient y1="337.502" id="LinearGradient_2" x1="336.658" y2="337.502" x2="363.467" gradientUnits="userSpaceOnUse" gradientTransform="matrix(-1.8424 0.49367 0.49367 1.8424 974.277 -363.483)">
<stop stop-opacity="0" stop-color="#ffffff" offset="0"/>
<stop stop-color="#ffffff" offset="1"/>
</linearGradient>
<linearGradient y1="337.502" id="LinearGradient_3" x1="336.658" y2="337.502" x2="363.467" gradientUnits="userSpaceOnUse" gradientTransform="matrix(0.49367 1.8424 -1.8424 0.49367 913.621 -398.503)">
<stop stop-opacity="0" stop-color="#ffffff" offset="0"/>
<stop stop-color="#ffffff" offset="1"/>
</linearGradient>
<linearGradient y1="337.502" id="LinearGradient_4" x1="336.658" y2="337.502" x2="363.467" gradientUnits="userSpaceOnUse" gradientTransform="matrix(-0.49367 -1.8424 -1.8424 0.49367 1272.49 940.801)">
<stop stop-opacity="0" stop-color="#ffffff" offset="0"/>
<stop stop-color="#ffffff" offset="1"/>
</linearGradient>
<linearGradient y1="104.685" id="LinearGradient_5" x1="108.005" y2="104.685" x2="372.505" gradientUnits="userSpaceOnUse" gradientTransform="matrix(-1.73204 -0.999994 4.29455 -7.43838 437.807 1456.7)">
<stop stop-opacity="0" stop-color="#ffffff" offset="0"/>
<stop stop-color="#ffffff" offset="1"/>
</linearGradient>
<path d="M207.363+493.834C201.84+503.4+205.118+515.631+214.684+521.154L527.317+701.653C536.883+707.176+549.115+703.899+554.638+694.333L735.137+381.699C740.659+372.134+737.382+359.902+727.816+354.379L415.183+173.88C405.617+168.357+393.385+171.635+387.862+181.2L207.363+493.834ZM211.693+496.334L392.192+183.7C396.335+176.526+405.508+174.068+412.683+178.21L725.316+358.709C732.491+362.851+734.949+372.025+730.807+379.199L550.308+691.833C546.165+699.007+536.992+701.465+529.817+697.323L217.184+516.824C210.009+512.682+207.551+503.508+211.693+496.334Z" id="Mask_2"/>
<linearGradient y1="337.502" id="LinearGradient_6" x1="336.658" y2="337.502" x2="363.467" gradientUnits="userSpaceOnUse" gradientTransform="matrix(0.45265 -0.121287 0.422246 1.57584 164.208 -50.0023)">
<stop stop-opacity="0" stop-color="#ffffff" offset="0"/>
<stop stop-color="#ffffff" offset="1"/>
</linearGradient>
<linearGradient y1="337.502" id="LinearGradient_7" x1="336.658" y2="337.502" x2="363.467" gradientUnits="userSpaceOnUse" gradientTransform="matrix(-0.45265 0.121287 0.422246 1.57584 493.255 -138.17)">
<stop stop-opacity="0" stop-color="#ffffff" offset="0"/>
<stop stop-color="#ffffff" offset="1"/>
</linearGradient>
<linearGradient y1="337.502" id="LinearGradient_8" x1="336.658" y2="337.502" x2="363.467" gradientUnits="userSpaceOnUse" gradientTransform="matrix(-0.121287 -0.45265 1.57584 -0.422246 -16.5259 744.796)">
<stop stop-opacity="0" stop-color="#ffffff" offset="0"/>
<stop stop-color="#ffffff" offset="1"/>
</linearGradient>
<linearGradient y1="337.502" id="LinearGradient_9" x1="336.658" y2="337.502" x2="363.467" gradientUnits="userSpaceOnUse" gradientTransform="matrix(0.121287 0.45265 1.57584 -0.422246 -104.694 415.749)">
<stop stop-opacity="0" stop-color="#ffffff" offset="0"/>
<stop stop-color="#ffffff" offset="1"/>
</linearGradient>
<linearGradient y1="104.685" id="LinearGradient_10" x1="108.005" y2="104.685" x2="372.505" gradientUnits="userSpaceOnUse" gradientTransform="matrix(1.73204 0.999995 4.29455 -7.43838 -394.455 976.198)">
<stop stop-opacity="0" stop-color="#ffffff" offset="0"/>
<stop stop-color="#ffffff" offset="1"/>
</linearGradient>
<path d="M134.937+491.282C121.13+515.196+129.324+545.776+153.238+559.583L524.761+774.082C548.676+787.889+579.255+779.695+593.062+755.78L807.561+384.257C821.368+360.343+813.174+329.764+789.26+315.957L417.737+101.458C393.823+87.6508+363.243+95.8444+349.436+119.759L134.937+491.282ZM211.693+496.337L392.192+183.703C396.334+176.529+405.508+174.071+412.682+178.213L725.315+358.712C732.49+362.854+734.948+372.028+730.806+379.202L550.307+691.836C546.165+699.01+536.991+701.468+529.816+697.326L217.183+516.827C210.009+512.685+207.551+503.511+211.693+496.337Z" id="Mask_3"/>
<linearGradient y1="625.831" id="LinearGradient_11" x1="211.556" y2="625.831" x2="554.576" gradientUnits="userSpaceOnUse" gradientTransform="matrix(-8.74223e-08 -1.99999 1.99999 -8.74223e-08 -780.406 1203.9)">
<stop stop-opacity="0" stop-color="#ffffff" offset="0"/>
<stop stop-opacity="0.267986" stop-color="#ffffff" offset="1"/>
</linearGradient>
<radialGradient cx="272.62" r="689.779" id="RadialGradient" gradientUnits="userSpaceOnUse" gradientTransform="matrix(1.99999 0 0 1.99999 -267.812 -163.975)" cy="335.996">
<stop stop-color="#00c7ff" offset="0"/>
<stop stop-opacity="0" stop-color="#00c7ff" offset="1"/>
</radialGradient>
<path d="M533.256+567.693C528.598+571.602+524.982+576.284+522.131+581.271C521.744+581.946+521.201+582.554+520.849+583.244C519.383+586.12+518.236+589.141+517.358+592.21C516.476+595.297+515.877+598.496+515.598+601.683C515.474+603.113+515.621+604.552+515.62+605.988C515.617+610.938+516.141+615.913+517.615+620.714C519.522+626.922+522.655+632.846+527.093+638.134L655.007+790.577C657.226+793.221+659.639+795.577+662.241+797.642C662.257+797.655+662.265+797.677+662.281+797.69C664.87+799.739+667.643+801.466+670.517+802.935C670.535+802.944+670.54+802.974+670.557+802.983C676.327+805.924+682.593+807.718+688.949+808.274C698.509+809.111+708.333+807.187+717.097+802.441C720.019+800.859+722.804+798.958+725.448+796.739L877.89+668.825C880.534+666.607+882.89+664.194+884.956+661.591C891.151+653.784+894.752+644.444+895.588+634.883C895.866+631.713+895.82+628.514+895.492+625.337C895.49+625.319+895.453+625.307+895.452+625.289C894.452+615.711+890.709+606.317+884.053+598.384L756.139+445.942C747.264+435.365+734.985+429.407+722.237+428.292C719.05+428.013+715.796+428.047+712.603+428.381C709.41+428.714+706.223+429.348+703.119+430.301C696.91+432.208+690.986+435.342+685.698+439.779L533.256+567.693ZM603.653+598.695L704.004+514.491C710.351+509.166+719.812+509.993+725.137+516.339L809.342+616.691C814.667+623.037+813.839+632.498+807.493+637.823L707.141+722.028C700.795+727.353+691.334+726.525+686.009+720.179L601.804+619.828C596.479+613.482+597.307+604.02+603.653+598.695Z" id="Mask_4"/>
<linearGradient y1="337.502" id="LinearGradient_12" x1="336.658" y2="337.502" x2="363.467" gradientUnits="userSpaceOnUse" gradientTransform="matrix(1.90014 0.16624 -0.16624 1.90014 71.0429 -83.4628)">
<stop stop-opacity="0" stop-color="#ffffff" offset="0"/>
<stop stop-color="#ffffff" offset="1"/>
</linearGradient>
<linearGradient y1="337.502" id="LinearGradient_13" x1="336.658" y2="337.502" x2="363.467" gradientUnits="userSpaceOnUse" gradientTransform="matrix(-1.90014 -0.16624 -0.16624 1.90014 1452.32 37.3828)">
<stop stop-opacity="0" stop-color="#ffffff" offset="0"/>
<stop stop-color="#ffffff" offset="1"/>
</linearGradient>
<linearGradient y1="337.502" id="LinearGradient_14" x1="336.658" y2="337.502" x2="363.467" gradientUnits="userSpaceOnUse" gradientTransform="matrix(-0.16624 1.90014 -1.90014 -0.16624 1407.3 -16.2708)">
<stop stop-opacity="0" stop-color="#ffffff" offset="0"/>
<stop stop-color="#ffffff" offset="1"/>
</linearGradient>
<linearGradient y1="337.502" id="LinearGradient_15" x1="336.658" y2="337.502" x2="363.467" gradientUnits="userSpaceOnUse" gradientTransform="matrix(0.16624 -1.90014 -1.90014 -0.16624 1286.45 1365)">
<stop stop-opacity="0" stop-color="#ffffff" offset="0"/>
<stop stop-color="#ffffff" offset="1"/>
</linearGradient>
<linearGradient y1="104.685" id="LinearGradient_16" x1="108.005" y2="104.685" x2="372.505" gradientUnits="userSpaceOnUse" gradientTransform="matrix(-0.726626 -0.865958 3.71892 -3.12055 490.834 1152.98)">
<stop stop-opacity="0" stop-color="#ffffff" offset="0"/>
<stop stop-color="#ffffff" offset="1"/>
</linearGradient>
<path d="M600.439+594.865C591.978+601.965+590.874+614.58+597.974+623.042L682.179+723.393C689.279+731.854+701.894+732.958+710.355+725.858L810.707+641.653C819.168+634.553+820.272+621.938+813.172+613.477L728.967+513.126C721.867+504.664+709.252+503.56+700.79+510.66L600.439+594.865ZM603.653+598.695L704.004+514.491C710.35+509.166+719.812+509.993+725.137+516.339L809.342+616.691C814.667+623.037+813.839+632.498+807.493+637.823L707.141+722.028C700.795+727.353+691.334+726.525+686.009+720.179L601.804+619.828C596.479+613.482+597.307+604.02+603.653+598.695Z" id="Mask_5"/>
<linearGradient y1="337.502" id="LinearGradient_17" x1="336.658" y2="337.502" x2="363.467" gradientUnits="userSpaceOnUse" gradientTransform="matrix(0.466825 0.0408419 -0.142186 1.62519 583.885 54.9088)">
<stop stop-opacity="0" stop-color="#ffffff" offset="0"/>
<stop stop-color="#ffffff" offset="1"/>
</linearGradient>
<linearGradient y1="337.502" id="LinearGradient_18" x1="336.658" y2="337.502" x2="363.467" gradientUnits="userSpaceOnUse" gradientTransform="matrix(-0.466825 -0.0408419 -0.142186 1.62519 923.237 84.5982)">
<stop stop-opacity="0" stop-color="#ffffff" offset="0"/>
<stop stop-color="#ffffff" offset="1"/>
</linearGradient>
<linearGradient y1="337.502" id="LinearGradient_19" x1="336.658" y2="337.502" x2="363.467" gradientUnits="userSpaceOnUse" gradientTransform="matrix(0.0408419 -0.466825 1.62519 0.142186 142.222 739.947)">
<stop stop-opacity="0" stop-color="#ffffff" offset="0"/>
<stop stop-color="#ffffff" offset="1"/>
</linearGradient>
<linearGradient y1="337.502" id="LinearGradient_20" x1="336.658" y2="337.502" x2="363.467" gradientUnits="userSpaceOnUse" gradientTransform="matrix(-0.0408419 0.466825 1.62519 0.142186 171.912 400.596)">
<stop stop-opacity="0" stop-color="#ffffff" offset="0"/>
<stop stop-color="#ffffff" offset="1"/>
</linearGradient>
<linearGradient y1="104.685" id="LinearGradient_21" x1="108.005" y2="104.685" x2="372.505" gradientUnits="userSpaceOnUse" gradientTransform="matrix(0.726625 0.865959 3.71892 -3.12055 141.683 736.882)">
<stop stop-opacity="0" stop-color="#ffffff" offset="0"/>
<stop stop-color="#ffffff" offset="1"/>
</linearGradient>
<path d="M533.255+567.696C512.101+585.446+509.342+616.984+527.092+638.138L655.006+790.58C672.756+811.733+704.294+814.492+725.447+796.742L877.889+668.828C899.043+651.078+901.802+619.541+884.052+598.387L756.138+445.945C738.388+424.791+706.85+422.032+685.697+439.782L533.255+567.696ZM603.652+598.698L704.004+514.494C710.35+509.169+719.811+509.997+725.136+516.343L809.341+616.694C814.666+623.04+813.838+632.501+807.492+637.826L707.141+722.031C700.794+727.356+691.333+726.528+686.008+720.182L601.803+619.831C596.478+613.485+597.306+604.023+603.652+598.698Z" id="Mask_6"/>
<linearGradient y1="625.831" id="LinearGradient_22" x1="211.556" y2="625.831" x2="554.576" gradientUnits="userSpaceOnUse" gradientTransform="matrix(-4.84694e-08 -1.10885 1.10885 -4.84694e-08 11.6193 1043.03)">
<stop stop-opacity="0" stop-color="#ffffff" offset="0"/>
<stop stop-opacity="0.267986" stop-color="#ffffff" offset="1"/>
</linearGradient>
<radialGradient cx="469.349" r="334.897" id="RadialGradient_2" gradientUnits="userSpaceOnUse" gradientTransform="matrix(1.99999 0 0 1.99999 -267.812 -163.975)" cy="392.487">
<stop stop-color="#0283a7" offset="0"/>
<stop stop-opacity="0" stop-color="#00c7ff" offset="1"/>
</radialGradient>
<path d="M537.785+752.546C531.258+754.793+525.521+758.257+520.689+762.597C515.857+766.937+511.904+772.14+509.099+777.891C507.697+780.766+506.622+783.797+505.789+786.897C504.955+789.997+504.385+793.141+504.163+796.38C503.709+802.877+504.534+809.554+506.788+816.1L534.136+895.523C543.126+921.633+571.58+935.511+597.69+926.52L677.113+899.173C703.223+890.182+717.101+861.728+708.11+835.619L680.763+756.196C676.268+743.141+666.919+733.119+655.418+727.51C649.667+724.705+643.349+723.038+636.869+722.593C630.389+722.148+623.736+722.951+617.209+725.198L537.785+752.546ZM592.397+806.717L607.525+801.508C615.358+798.811+623.894+802.974+626.591+810.807L631.801+825.935C634.498+833.768+630.334+842.304+622.501+845.002L607.373+850.211C599.54+852.908+591.004+848.744+588.307+840.911L583.098+825.783C580.401+817.95+584.564+809.414+592.397+806.717Z" id="Mask_7"/>
<linearGradient y1="337.502" id="LinearGradient_23" x1="336.658" y2="337.502" x2="363.467" gradientUnits="userSpaceOnUse" gradientTransform="matrix(1.71435 0.836146 -0.836146 1.71435 266.533 -56.6585)">
<stop stop-opacity="0" stop-color="#ffffff" offset="0"/>
<stop stop-color="#ffffff" offset="1"/>
</linearGradient>
<linearGradient y1="337.502" id="LinearGradient_24" x1="336.658" y2="337.502" x2="363.467" gradientUnits="userSpaceOnUse" gradientTransform="matrix(-1.71435 -0.836146 -0.836146 1.71435 1512.76 551.164)">
<stop stop-opacity="0" stop-color="#ffffff" offset="0"/>
<stop stop-color="#ffffff" offset="1"/>
</linearGradient>
<linearGradient y1="337.502" id="LinearGradient_25" x1="336.658" y2="337.502" x2="363.467" gradientUnits="userSpaceOnUse" gradientTransform="matrix(-0.836146 1.71435 -1.71435 -0.836146 1489.95 484.94)">
<stop stop-opacity="0" stop-color="#ffffff" offset="0"/>
<stop stop-color="#ffffff" offset="1"/>
</linearGradient>
<linearGradient y1="337.502" id="LinearGradient_26" x1="336.658" y2="337.502" x2="363.467" gradientUnits="userSpaceOnUse" gradientTransform="matrix(0.836146 -1.71435 -1.71435 -0.836146 882.13 1731.16)">
<stop stop-opacity="0" stop-color="#ffffff" offset="0"/>
<stop stop-color="#ffffff" offset="1"/>
</linearGradient>
<linearGradient y1="515.248" id="LinearGradient_27" x1="369.42" y2="515.248" x2="461.42" gradientUnits="userSpaceOnUse" gradientTransform="matrix(-0.651133 -1.89103 1.89103 -0.651133 -96.4087 1946.93)">
<stop stop-opacity="0" stop-color="#ffffff" offset="0"/>
<stop stop-color="#ffffff" offset="1"/>
</linearGradient>
<path d="M590.764+801.981C580.32+805.577+574.769+816.959+578.365+827.402L583.574+842.531C587.17+852.975+598.551+858.526+608.995+854.93L624.124+849.721C634.567+846.124+640.119+834.743+636.522+824.299L631.313+809.171C627.717+798.727+616.336+793.176+605.892+796.772L590.764+801.981ZM592.391+806.708L607.52+801.499C615.353+798.802+623.889+802.966+626.586+810.799L631.795+825.927C634.492+833.76+630.329+842.296+622.496+844.993L607.368+850.202C599.535+852.899+590.998+848.736+588.301+840.903L583.092+825.775C580.395+817.942+584.559+809.406+592.391+806.708Z" id="Mask_8"/>
<linearGradient y1="337.502" id="LinearGradient_28" x1="336.658" y2="337.502" x2="363.467" gradientUnits="userSpaceOnUse" gradientTransform="matrix(0.421191 0.205428 -0.715173 1.46632 695.727 256.298)">
<stop stop-opacity="0" stop-color="#ffffff" offset="0"/>
<stop stop-color="#ffffff" offset="1"/>
</linearGradient>
<linearGradient y1="337.502" id="LinearGradient_29" x1="336.658" y2="337.502" x2="363.467" gradientUnits="userSpaceOnUse" gradientTransform="matrix(-0.421191 -0.205428 -0.715173 1.46632 1001.9 405.631)">
<stop stop-opacity="0" stop-color="#ffffff" offset="0"/>
<stop stop-color="#ffffff" offset="1"/>
</linearGradient>
<linearGradient y1="337.502" id="LinearGradient_30" x1="336.658" y2="337.502" x2="363.467" gradientUnits="userSpaceOnUse" gradientTransform="matrix(0.205428 -0.421191 1.46632 0.715173 37.8907 737.568)">
<stop stop-opacity="0" stop-color="#ffffff" offset="0"/>
<stop stop-color="#ffffff" offset="1"/>
</linearGradient>
<linearGradient y1="337.502" id="LinearGradient_31" x1="336.658" y2="337.502" x2="363.467" gradientUnits="userSpaceOnUse" gradientTransform="matrix(-0.205428 0.421191 1.46632 0.715173 187.224 431.39)">
<stop stop-opacity="0" stop-color="#ffffff" offset="0"/>
<stop stop-color="#ffffff" offset="1"/>
</linearGradient>
<linearGradient y1="456.87" id="LinearGradient_32" x1="490.53" y2="456.87" x2="518.53" gradientUnits="userSpaceOnUse" gradientTransform="matrix(0.651133 1.89103 1.89103 -0.651133 -585.026 169.254)">
<stop stop-opacity="0" stop-color="#ffffff" offset="0"/>
<stop stop-color="#ffffff" offset="1"/>
</linearGradient>
<path d="M537.785+752.549C511.675+761.539+497.797+789.993+506.787+816.103L534.135+895.526C543.125+921.636+571.579+935.514+597.689+926.523L677.112+899.176C703.222+890.185+717.1+861.731+708.109+835.622L680.762+756.199C671.772+730.089+643.317+716.211+617.208+725.201L537.785+752.549ZM592.396+806.72L607.524+801.511C615.357+798.814+623.893+802.977+626.591+810.81L631.8+825.938C634.497+833.771+630.334+842.308+622.501+845.005L607.372+850.214C599.539+852.911+591.003+848.747+588.306+840.915L583.097+825.786C580.4+817.953+584.563+809.417+592.396+806.72Z" id="Mask_9"/>
<linearGradient y1="625.831" id="LinearGradient_33" x1="211.556" y2="625.831" x2="554.576" gradientUnits="userSpaceOnUse" gradientTransform="matrix(-2.63526e-08 -0.602877 0.602877 -2.63526e-08 230.149 1056.8)">
<stop stop-opacity="0" stop-color="#ffffff" offset="0"/>
<stop stop-opacity="0.267986" stop-color="#ffffff" offset="1"/>
</linearGradient>
<radialGradient cx="437.632" r="229.632" id="RadialGradient_3" gradientUnits="userSpaceOnUse" gradientTransform="matrix(1.99999 0 0 1.99999 -267.812 -163.975)" cy="494.921">
<stop stop-color="#092f3a" offset="0"/>
<stop stop-opacity="0" stop-color="#00c7ff" offset="1"/>
</radialGradient>
</defs>
<g id="圖層2" vectornator:layerName="圖層2">
<path vectornator:shadowColor="#000000" vectornator:shadowOpacity="0.333" vectornator:shadowRadius="8" d="M134.937+491.282C121.13+515.196+129.324+545.776+153.238+559.583L524.761+774.082C548.676+787.889+579.255+779.695+593.062+755.78L807.561+384.257C821.368+360.343+813.174+329.764+789.26+315.957L417.737+101.458C393.823+87.6508+363.243+95.8444+349.436+119.759L134.937+491.282ZM211.693+496.337L392.192+183.703C396.334+176.529+405.508+174.071+412.682+178.213L725.315+358.712C732.49+362.854+734.948+372.028+730.806+379.202L550.307+691.836C546.165+699.01+536.991+701.468+529.816+697.326L217.183+516.827C210.009+512.685+207.551+503.511+211.693+496.337Z" vectornator:shadowOffset="8" fill="#092f3a" opacity="1" vectornator:shadowAngle="1.5708"/>
<g opacity="1" vectornator:mask="#Mask">
<use xlink:href="#Mask" fill="#043948" stroke="none"/>
<clipPath id="ClipPath">
<use xlink:href="#Mask" fill="none" overflow="visible"/>
</clipPath>
<g clip-path="url(#ClipPath)">
<path d="M134.938+491.279C121.131+515.193+129.325+545.773+153.239+559.58L524.762+774.079C548.677+787.886+579.256+779.692+593.063+755.777L807.562+384.254C821.369+360.34+813.175+329.761+789.261+315.954L417.738+101.455C393.823+87.6477+363.244+95.8413+349.437+119.756L134.938+491.279ZM211.693+496.334L392.192+183.7C396.335+176.526+405.508+174.068+412.683+178.21L725.316+358.709C732.491+362.851+734.949+372.025+730.807+379.199L550.308+691.833C546.165+699.007+536.992+701.465+529.817+697.323L217.184+516.824C210.009+512.682+207.551+503.508+211.693+496.334Z" opacity="1" fill="#56dff8"/>
<path d="M134.938+491.279C131.486+497.257+129.429+503.635+128.629+510.081C127.83+516.526+128.26+523.047+129.916+529.227C130.744+532.317+131.921+535.309+133.326+538.196C134.731+541.082+136.363+543.829+138.321+546.42C142.241+551.62+147.244+556.118+153.239+559.58L524.762+774.079C548.677+787.886+579.256+779.692+593.063+755.777L807.562+384.254C821.369+360.34+813.175+329.761+789.261+315.954L417.738+101.455C405.781+94.5512+392.15+93.1209+379.79+96.4328C373.61+98.0887+367.748+100.976+362.566+104.891C357.383+108.807+352.889+113.777+349.437+119.756L134.938+491.279ZM211.693+496.334L392.192+183.7C396.335+176.526+405.508+174.068+412.683+178.21L725.316+358.709C732.491+362.851+734.949+372.025+730.807+379.199L550.308+691.833C546.165+699.007+536.992+701.465+529.817+697.323L217.184+516.824C210.009+512.682+207.551+503.508+211.693+496.334Z" opacity="1" fill="#043948"/>
<g opacity="1">
<g opacity="1">
<path d="M318.319+64.6304L367.713+51.3954L574.767+824.132L525.374+837.367L318.319+64.6304Z" opacity="1" fill="url(#LinearGradient)"/>
<path d="M417.107+38.1605L367.713+51.3954L574.767+824.132L624.161+810.897L417.107+38.1605Z" opacity="1" fill="url(#LinearGradient_2)"/>
</g>
<g opacity="1">
<path d="M844.373+284.843L857.608+334.237L84.8718+541.291L71.6368+491.897L844.373+284.843Z" opacity="1" fill="url(#LinearGradient_3)"/>
<path d="M870.843+383.63L857.608+334.237L84.8718+541.291L98.1068+590.684L870.843+383.63Z" opacity="1" fill="url(#LinearGradient_4)"/>
</g>
</g>
<path d="M339.001+666.829L524.762+774.079C548.677+787.886+579.256+779.692+593.063+755.777L807.562+384.254C821.369+360.34+813.175+329.761+789.261+315.954L603.499+208.704L568.999+268.46L725.316+358.709C732.491+362.851+734.949+372.025+730.807+379.199L550.308+691.833C546.165+699.007+536.992+701.465+529.817+697.323L373.501+607.074L339.001+666.829Z" opacity="1" fill="#043948"/>
<path d="M568.063+799.078L109.938+534.58L374.437+76.4549L832.562+340.953L568.063+799.078Z" opacity="1" fill="url(#LinearGradient_5)"/>
<path d="M303.558+340.95L832.562+340.953L568.063+799.078L303.558+340.95Z" opacity="1" fill="#043948"/>
</g>
</g>
<path d="M140.268+492.047C127.29+514.526+134.992+543.271+157.471+556.25L525.53+768.748C548.01+781.727+576.754+774.025+589.733+751.545L802.232+383.486C815.211+361.007+807.508+332.262+785.029+319.284L416.97+106.785C394.49+93.8061+365.746+101.508+352.767+123.988L140.268+492.047ZM207.363+493.834L387.862+181.2C393.385+171.635+405.617+168.357+415.183+173.88L727.816+354.379C737.382+359.902+740.659+372.134+735.137+381.699L554.638+694.333C549.115+703.899+536.883+707.176+527.317+701.653L214.684+521.154C205.118+515.631+201.84+503.4+207.363+493.834Z" opacity="1" fill="#1aadd6"/>
<g opacity="1" vectornator:mask="#Mask_2">
<use xlink:href="#Mask_2" fill="#043948" stroke="none"/>
<clipPath id="ClipPath_2">
<use xlink:href="#Mask_2" fill="none" overflow="visible"/>
</clipPath>
<g clip-path="url(#ClipPath_2)">
<g opacity="1">
<g opacity="1">
<path d="M370.556+110.547L382.691+107.295L559.789+768.232L547.654+771.484L370.556+110.547Z" opacity="1" fill="url(#LinearGradient_6)"/>
<path d="M394.827+104.043L382.691+107.295L559.789+768.232L571.924+764.981L394.827+104.043Z" opacity="1" fill="url(#LinearGradient_7)"/>
</g>
<g opacity="1">
<path d="M144.023+538.448L140.771+526.313L801.709+349.215L804.96+361.35L144.023+538.448Z" opacity="1" fill="url(#LinearGradient_8)"/>
<path d="M137.52+514.177L140.771+526.313L801.709+349.215L798.457+337.08L137.52+514.177Z" opacity="1" fill="url(#LinearGradient_9)"/>
</g>
</g>
<path d="M339.001+666.829L153.239+559.58C129.325+545.773+121.131+515.193+134.938+491.279L349.437+119.756C363.244+95.8414+393.823+87.6476+417.738+101.455L603.499+208.704L568.999+268.46L412.683+178.21C405.508+174.068+396.335+176.526+392.192+183.7L211.693+496.334C207.551+503.508+210.009+512.682+217.184+516.824L373.501+607.074L339.001+666.829Z" opacity="1" fill="#043948"/>
<path d="M109.938+534.58L568.063+799.078L832.562+340.953L374.437+76.4548L109.938+534.58Z" opacity="1" fill="url(#LinearGradient_10)"/>
<path d="M598.361+511.154L197.363+511.154L397.862+163.88L598.361+511.154Z" opacity="1" fill="#043948"/>
</g>
</g>
<g opacity="1" vectornator:mask="#Mask_3">
<use stroke="none" xlink:href="#Mask_3" fill-opacity="0" fill="#092f3a"/>
<clipPath id="ClipPath_3">
<use xlink:href="#Mask_3" fill="none" overflow="visible"/>
</clipPath>
<g clip-path="url(#ClipPath_3)">
<path d="M128.23+780.787L128.23+94.7507L814.267+94.7507L814.267+780.787L128.23+780.787Z" opacity="1" fill="url(#LinearGradient_11)"/>
</g>
</g>
<path d="M134.937+491.282C121.13+515.196+129.324+545.776+153.238+559.583L524.761+774.082C548.676+787.889+579.255+779.695+593.062+755.78L807.561+384.257C821.368+360.343+813.174+329.764+789.26+315.957L417.737+101.458C393.823+87.6508+363.243+95.8444+349.436+119.759L134.937+491.282ZM211.693+496.337L392.192+183.703C396.334+176.529+405.508+174.071+412.682+178.213L725.315+358.712C732.49+362.854+734.948+372.028+730.806+379.202L550.307+691.836C546.165+699.01+536.991+701.468+529.816+697.326L217.183+516.827C210.009+512.685+207.551+503.511+211.693+496.337Z" opacity="1" fill="url(#RadialGradient)"/>
<path vectornator:shadowColor="#000000" vectornator:shadowOpacity="0.333" vectornator:shadowRadius="8" d="M533.255+567.696C512.101+585.446+509.342+616.984+527.092+638.138L655.006+790.58C672.756+811.733+704.294+814.492+725.447+796.742L877.889+668.828C899.043+651.078+901.802+619.541+884.052+598.387L756.138+445.945C738.388+424.791+706.85+422.032+685.697+439.782L533.255+567.696ZM603.652+598.698L704.004+514.494C710.35+509.169+719.811+509.997+725.136+516.343L809.341+616.694C814.666+623.04+813.838+632.501+807.492+637.826L707.141+722.031C700.794+727.356+691.333+726.528+686.008+720.182L601.803+619.831C596.478+613.485+597.306+604.023+603.652+598.698Z" vectornator:shadowOffset="8" fill="#092f3a" opacity="1" vectornator:shadowAngle="1.5708"/>
<g opacity="1" vectornator:mask="#Mask_4">
<use xlink:href="#Mask_4" fill="#043948" stroke="none"/>
<clipPath id="ClipPath_4">
<use xlink:href="#Mask_4" fill="none" overflow="visible"/>
</clipPath>
<g clip-path="url(#ClipPath_4)">
<path d="M533.256+567.693C512.102+585.443+509.343+616.981+527.093+638.134L655.007+790.577C672.757+811.73+704.295+814.489+725.448+796.739L877.89+668.825C899.044+651.075+901.803+619.538+884.053+598.384L756.139+445.942C738.389+424.788+706.851+422.029+685.698+439.779L533.256+567.693ZM603.653+598.695L704.004+514.491C710.351+509.166+719.812+509.993+725.137+516.339L809.342+616.691C814.667+623.037+813.839+632.498+807.493+637.823L707.141+722.028C700.795+727.353+691.334+726.525+686.009+720.179L601.804+619.828C596.479+613.482+597.307+604.02+603.653+598.695Z" opacity="1" fill="#56dff8"/>
<path d="M533.256+567.693C528.598+571.602+524.982+576.284+522.131+581.271C521.744+581.946+521.201+582.554+520.849+583.244C519.383+586.12+518.236+589.141+517.358+592.21C516.476+595.297+515.877+598.496+515.598+601.683C515.474+603.113+515.621+604.552+515.62+605.988C515.617+610.938+516.141+615.913+517.615+620.714C519.522+626.922+522.655+632.846+527.093+638.134L655.007+790.577C657.226+793.221+659.639+795.577+662.241+797.642C662.257+797.655+662.265+797.677+662.281+797.69C664.87+799.739+667.643+801.466+670.517+802.935C670.535+802.944+670.54+802.974+670.557+802.983C676.327+805.924+682.593+807.718+688.949+808.274C698.509+809.111+708.333+807.187+717.097+802.441C720.019+800.859+722.804+798.958+725.448+796.739L877.89+668.825C880.534+666.607+882.89+664.194+884.956+661.591C891.151+653.784+894.752+644.444+895.588+634.883C895.866+631.713+895.82+628.514+895.492+625.337C895.49+625.319+895.453+625.307+895.452+625.289C894.452+615.711+890.709+606.317+884.053+598.384L756.139+445.942C747.264+435.365+734.985+429.407+722.237+428.292C719.05+428.013+715.796+428.047+712.603+428.381C709.41+428.714+706.223+429.348+703.119+430.301C696.91+432.208+690.986+435.342+685.698+439.779L533.256+567.693ZM603.653+598.695L704.004+514.491C710.351+509.166+719.812+509.993+725.137+516.339L809.342+616.691C814.667+623.037+813.839+632.498+807.493+637.823L707.141+722.028C700.795+727.353+691.334+726.525+686.009+720.179L601.804+619.828C596.479+613.482+597.307+604.02+603.653+598.695Z" opacity="1" fill="#043948"/>
<g opacity="1">
<g opacity="1">
<path d="M689.494+215.327L740.435+219.783L670.711+1016.74L619.769+1012.28L689.494+215.327Z" opacity="1" fill="url(#LinearGradient_12)"/>
<path d="M791.376+224.24L740.435+219.783L670.711+1016.74L721.652+1021.19L791.376+224.24Z" opacity="1" fill="url(#LinearGradient_13)"/>
</g>
<g opacity="1">
<path d="M1108.51+602.18L1104.05+653.121L307.097+583.397L311.554+532.456L1108.51+602.18Z" opacity="1" fill="url(#LinearGradient_14)"/>
<path d="M1099.59+704.063L1104.05+653.121L307.097+583.397L302.64+634.339L1099.59+704.063Z" opacity="1" fill="url(#LinearGradient_15)"/>
</g>
</g>
<path d="M591.05+714.356L820.096+522.163L916.192+636.686L687.146+828.879L591.05+714.356Z" opacity="1" fill="#043948"/>
<path d="M687.146+828.879L494.954+599.832L724+407.64L916.192+636.686L687.146+828.879Z" opacity="1" fill="url(#LinearGradient_16)"/>
<path d="M635.226+534.423L916.192+636.686L687.146+828.879L635.226+534.423Z" opacity="1" fill="#043948"/>
</g>
</g>
<path d="M537.227+570.855C517.766+587.185+515.227+616.2+531.557+635.661L658.186+786.571C674.516+806.032+703.531+808.571+722.992+792.241L873.902+665.612C893.363+649.282+895.902+620.268+879.572+600.806L752.943+449.896C736.613+430.435+707.598+427.897+688.137+444.227L537.227+570.855ZM600.431+594.84L700.782+510.635C709.244+503.535+721.859+504.639+728.959+513.1L813.163+613.451C820.263+621.913+819.16+634.528+810.698+641.628L710.347+725.833C701.886+732.932+689.27+731.829+682.17+723.367L597.966+623.016C590.866+614.555+591.969+601.94+600.431+594.84Z" opacity="1" fill="#1aadd6"/>
<g opacity="1" vectornator:mask="#Mask_5">
<use xlink:href="#Mask_5" fill="#043948" stroke="none"/>
<clipPath id="ClipPath_5">
<use xlink:href="#Mask_5" fill="none" overflow="visible"/>
</clipPath>
<g clip-path="url(#ClipPath_5)">
<g opacity="1">
<g opacity="1">
<path d="M722.875+276.346L735.391+277.441L675.755+959.077L663.24+957.982L722.875+276.346Z" opacity="1" fill="url(#LinearGradient_17)"/>
<path d="M747.906+278.536L735.391+277.441L675.755+959.077L688.27+960.172L747.906+278.536Z" opacity="1" fill="url(#LinearGradient_18)"/>
</g>
<g opacity="1">
<path d="M363.66+600.957L364.755+588.442L1046.39+648.077L1045.3+660.592L363.66+600.957Z" opacity="1" fill="url(#LinearGradient_19)"/>
<path d="M365.85+575.926L364.755+588.442L1046.39+648.077L1047.49+635.562L365.85+575.926Z" opacity="1" fill="url(#LinearGradient_20)"/>
</g>
</g>
<path d="M585.118+607.721L716.111+497.805L771.069+563.301L640.076+673.217L585.118+607.721Z" opacity="1" fill="#043948"/>
<path d="M494.954+599.832L687.146+828.879L916.192+636.686L724+407.64L494.954+599.832Z" opacity="1" fill="url(#LinearGradient_21)"/>
<path d="M745.805+666.206L585.118+607.721L716.111+497.805L745.805+666.206Z" opacity="1" fill="#043948"/>
</g>
</g>
<g opacity="1" vectornator:mask="#Mask_6">
<use stroke="none" xlink:href="#Mask_6" fill-opacity="0" fill="#092f3a"/>
<clipPath id="ClipPath_6">
<use xlink:href="#Mask_6" fill="none" overflow="visible"/>
</clipPath>
<g clip-path="url(#ClipPath_6)">
<path d="M515.393+808.441L515.393+428.083L895.751+428.083L895.751+808.441L515.393+808.441Z" opacity="1" fill="url(#LinearGradient_22)"/>
</g>
</g>
<path d="M533.255+567.696C512.101+585.446+509.342+616.984+527.092+638.138L655.006+790.58C672.756+811.733+704.294+814.492+725.447+796.742L877.889+668.828C899.043+651.078+901.802+619.541+884.052+598.387L756.138+445.945C738.388+424.791+706.85+422.032+685.697+439.782L533.255+567.696ZM603.652+598.698L704.004+514.494C710.35+509.169+719.811+509.997+725.136+516.343L809.341+616.694C814.666+623.04+813.838+632.501+807.492+637.826L707.141+722.031C700.794+727.356+691.333+726.528+686.008+720.182L601.803+619.831C596.478+613.485+597.306+604.023+603.652+598.698Z" opacity="1" fill="url(#RadialGradient_2)"/>
<path vectornator:shadowColor="#000000" vectornator:shadowOpacity="0.333" vectornator:shadowRadius="8" d="M537.785+752.549C511.675+761.539+497.797+789.993+506.787+816.103L534.135+895.526C543.125+921.636+571.579+935.514+597.689+926.523L677.112+899.176C703.222+890.185+717.1+861.731+708.109+835.622L680.762+756.199C671.772+730.089+643.317+716.211+617.208+725.201L537.785+752.549ZM592.396+806.72L607.524+801.511C615.357+798.814+623.893+802.977+626.591+810.81L631.8+825.938C634.497+833.771+630.334+842.308+622.501+845.005L607.372+850.214C599.539+852.911+591.003+848.747+588.306+840.915L583.097+825.786C580.4+817.953+584.563+809.417+592.396+806.72Z" vectornator:shadowOffset="8" fill="#092f3a" opacity="1" vectornator:shadowAngle="1.5708"/>
<g opacity="1" vectornator:mask="#Mask_7">
<use xlink:href="#Mask_7" fill="#043948" stroke="none"/>
<clipPath id="ClipPath_7">
<use xlink:href="#Mask_7" fill="none" overflow="visible"/>
</clipPath>
<g clip-path="url(#ClipPath_7)">
<path d="M537.785+752.546C511.676+761.536+497.798+789.99+506.788+816.1L534.136+895.523C543.126+921.633+571.58+935.511+597.69+926.52L677.113+899.173C703.223+890.182+717.101+861.728+708.11+835.619L680.763+756.196C671.772+730.086+643.318+716.208+617.209+725.198L537.785+752.546ZM592.397+806.717L607.525+801.508C615.358+798.811+623.894+802.974+626.591+810.807L631.801+825.935C634.498+833.768+630.334+842.304+622.501+845.002L607.373+850.211C599.54+852.908+591.004+848.744+588.307+840.911L583.098+825.783C580.401+817.95+584.564+809.414+592.397+806.717Z" opacity="1" fill="#56dff8"/>
<path d="M537.785+752.546C531.258+754.793+525.521+758.257+520.689+762.597C515.857+766.937+511.904+772.14+509.099+777.891C507.697+780.766+506.622+783.797+505.789+786.897C504.955+789.997+504.385+793.141+504.163+796.38C503.709+802.877+504.534+809.554+506.788+816.1L534.136+895.523C543.126+921.633+571.58+935.511+597.69+926.52L677.113+899.173C703.223+890.182+717.101+861.728+708.11+835.619L680.763+756.196C676.268+743.141+666.919+733.119+655.418+727.51C649.667+724.705+643.349+723.038+636.869+722.593C630.389+722.148+623.736+722.951+617.209+725.198L537.785+752.546ZM592.397+806.717L607.525+801.508C615.358+798.811+623.894+802.974+626.591+810.807L631.801+825.935C634.498+833.768+630.334+842.304+622.501+845.002L607.373+850.211C599.54+852.908+591.004+848.744+588.307+840.911L583.098+825.783C580.401+817.95+584.564+809.414+592.397+806.717Z" opacity="1" fill="#043948"/>
<g opacity="1">
<g opacity="1">
<path d="M736.83+443.918L782.791+466.335L432.096+1185.37L386.135+1162.95L736.83+443.918Z" opacity="1" fill="url(#LinearGradient_23)"/>
<path d="M828.752+488.751L782.791+466.335L432.096+1185.37L478.057+1207.78L828.752+488.751Z" opacity="1" fill="url(#LinearGradient_24)"/>
</g>
<g opacity="1">
<path d="M989.376+955.237L966.959+1001.2L247.928+650.503L270.344+604.542L989.376+955.237Z" opacity="1" fill="url(#LinearGradient_25)"/>
<path d="M944.543+1047.16L966.959+1001.2L247.928+650.503L225.511+696.464L944.543+1047.16Z" opacity="1" fill="url(#LinearGradient_26)"/>
</g>
</g>
<path d="M520.456+855.813L694.431+795.909L724.383+882.896L550.408+942.801L520.456+855.813Z" opacity="1" fill="#043948"/>
<path d="M550.414+942.799L490.51+768.824L664.479+708.922L724.383+882.896L550.414+942.799Z" opacity="1" fill="url(#LinearGradient_27)"/>
<path d="M585.523+762.18L724.389+882.894L550.414+942.799L585.523+762.18Z" opacity="1" fill="#043948"/>
</g>
</g>
<path d="M540.359+756.948C516.338+765.219+503.57+791.397+511.841+815.418L538.538+892.95C546.809+916.971+572.987+929.738+597.007+921.467L674.54+894.771C698.56+886.5+711.328+860.322+703.057+836.301L676.361+758.769C668.09+734.748+641.912+721.98+617.891+730.251L540.359+756.948ZM590.769+801.989L605.897+796.78C616.341+793.184+627.723+798.735+631.319+809.179L636.528+824.308C640.124+834.751+634.573+846.133+624.129+849.729L609.001+854.938C598.557+858.534+587.175+852.983+583.579+842.539L578.37+827.411C574.774+816.967+580.325+805.586+590.769+801.989Z" opacity="1" fill="#1aadd6"/>
<g opacity="1" vectornator:mask="#Mask_8">
<use xlink:href="#Mask_8" fill="#043948" stroke="none"/>
<clipPath id="ClipPath_8">
<use xlink:href="#Mask_8" fill="none" overflow="visible"/>
</clipPath>
<g clip-path="url(#ClipPath_8)">
<g opacity="1">
<g opacity="1">
<path d="M746.13+512.842L757.422+518.35L457.465+1133.35L446.173+1127.84L746.13+512.842Z" opacity="1" fill="url(#LinearGradient_28)"/>
<path d="M768.714+523.857L757.422+518.35L457.465+1133.35L468.757+1138.86L768.714+523.857Z" opacity="1" fill="url(#LinearGradient_29)"/>
</g>
<g opacity="1">
<path d="M294.435+687.164L299.942+675.872L914.945+975.829L909.437+987.121L294.435+687.164Z" opacity="1" fill="url(#LinearGradient_30)"/>
<path d="M305.45+664.581L299.942+675.872L914.945+975.829L920.452+964.537L305.45+664.581Z" opacity="1" fill="url(#LinearGradient_31)"/>
</g>
</g>
<path d="M571.853+808.492L624.802+790.26L633.918+816.735L580.969+834.967L571.853+808.492Z" opacity="1" fill="#043948"/>
<path d="M571.853+808.492L590.085+861.441L643.034+843.209L624.802+790.26L571.853+808.492Z" opacity="1" fill="url(#LinearGradient_32)"/>
<path d="M614.117+845.231L571.853+808.492L624.802+790.26L614.117+845.231Z" opacity="1" fill="#043948"/>
</g>
</g>
<g opacity="1" vectornator:mask="#Mask_9">
<use stroke="none" xlink:href="#Mask_9" fill-opacity="0" fill="#092f3a"/>
<clipPath id="ClipPath_9">
<use xlink:href="#Mask_9" fill="none" overflow="visible"/>
</clipPath>
<g clip-path="url(#ClipPath_9)">
<path d="M504.048+929.261L504.048+722.462L710.847+722.462L710.847+929.261L504.048+929.261Z" opacity="1" fill="url(#LinearGradient_33)"/>
</g>
</g>
<path d="M537.785+752.549C511.675+761.539+497.797+789.993+506.787+816.103L534.135+895.526C543.125+921.636+571.579+935.514+597.689+926.523L677.112+899.176C703.222+890.185+717.1+861.731+708.109+835.622L680.762+756.199C671.772+730.089+643.317+716.211+617.208+725.201L537.785+752.549ZM592.396+806.72L607.524+801.511C615.357+798.814+623.893+802.977+626.591+810.81L631.8+825.938C634.497+833.771+630.334+842.308+622.501+845.005L607.372+850.214C599.539+852.911+591.003+848.747+588.306+840.915L583.097+825.786C580.4+817.953+584.563+809.417+592.396+806.72Z" opacity="1" fill="url(#RadialGradient_3)"/>
</g>
</svg>
